<svg xmlns="http://www.w3.org/2000/svg" viewBox="0 0 350 319.46"><defs><style>.cls-1{fill:#57d357;}.cls-2{fill:#d1ecfb;}.cls-3{fill:#103754;}.cls-4{fill:none;}.cls-5{fill:#c1e2de;}.cls-6{fill:#0e303f;}.cls-10,.cls-11,.cls-7{fill:#fff;}.cls-8{fill:#fd6120;}.cls-9{fill:#b7c9cb;}.cls-10,.cls-11{isolation:isolate;}.cls-10{font-size:12.67px;font-family:Heineken, Heineken;}.cls-11{font-size:8.23px;font-family:ArialMT, Arial;}</style></defs><title>Recurso 1</title><g id="Capa_2" data-name="Capa 2"><g id="Desktop-Home"><g id="Mejor_opción" data-name="Mejor opción"><path class="cls-1" d="M344.72,186.71c-.46.23-2.76.46-3.1.11s-.69.92-1.26,1.15-.23,1.38.57,1,2.76.92,4.48,2.07c.34-1.72.69-3.56.92-5.4Z"/><path class="cls-2" d="M190.16,0C102.08,0,30.43,71.65,30.43,159.73s71.65,159.73,159.73,159.73S350,247.92,350,159.84,278.23,0,190.16,0Z"/><path class="cls-1" d="M341.28,203.25c-2.07,0-4.82,1-4.82,1.72s-2.87,2-3.9,2.41-2.76,3.33-3.22,4.25-2.76.69-3.56,1-2.64,1.84-2.64,2.64-.46.69-1-.23L321,216.23l-1.38,1.49c-.8,2.41-3.33,5.51-4.25,5.74s-1,4.48-1,6.2a8.15,8.15,0,0,0,1.49,4.71v1.38l.23,2.76a4.82,4.82,0,0,0,1.61,4.36c.46.34,4.36-.69,5.86-1l2.07-.8A162.59,162.59,0,0,0,342,202.91,1.15,1.15,0,0,1,341.28,203.25Z"/><path class="cls-1" d="M77.86,207.27c-.23.46,2.64,3.33,3.67,4.36a29.87,29.87,0,0,1,3.9,7.35,13.21,13.21,0,0,1,0,4.71A8,8,0,0,0,86,226.1c.11.57-.92,5.17-.57,7.12s-2.18,7.69-2.07,10.68,1.38,6.66,1.84,6.43.69,2.64-.11,3-2,2.64-1.38,2.76,0,2.41.11,3.33.92,7,1,8.5,2.3,5.17,2.76,6.43.92,3.56,1,3.9l.34.8a10.9,10.9,0,0,1,2.3,1c.46.34,3.9.11,5.05-.11s.11-1.26-.34-1.72-.92-3.22-1.49-3.44-.8-3.67-.34-4.48,2.53-2,2.76-2.64.23-3.56-.23-4,.11-4-.23-5.86,3.1-3.44,3.33-4.82,4-3,4.82-3.67,1.61-4.82,1.15-5.63,1.38-1.61,2.18-1.61a11.49,11.49,0,0,0,2.07-.57c.23,0,1.26-1.84,1.72-2.18s1.61-4.71,2.53-5.4a7.81,7.81,0,0,0,1.72-4,10.68,10.68,0,0,1,2-3.67c.46-.69,4-2.3,4.71-2.53s1.61-6,1.84-8a46.3,46.3,0,0,1,1.38-5.51c0-.69,1.15-1.26,1.38-1.49s1-2.87,1.61-3.44,2.53-3.1,2.53-3.67a18.26,18.26,0,0,1,.69-3.22v-3.56c-.57-1.72-2.53-3.9-3-3.33s-2.64-1.49-3.79-2a18.72,18.72,0,0,0-4.59-.69c-.69,0-3.1-2-4.25-2.3s-3.9-.8-4.36-1.15-1.15-4.48-3.44-5.86-6.2-4.59-6.66-5.74-4.71-3.56-6.09-4.36-3.33-.92-3.56-.57-2-2.3-2.76-3-3.44-1.26-3.56-.69-1.84.23-2.18-.23-1.72.23-2.41.46-2.76,3.44-3.79,4.25-2.18-.69-2.87-1a6.89,6.89,0,0,0-3.79,1c-.69.46-2.18-3.44-1.84-5.28s-1.61-5.4-3.22-5.51-2-3.9-1.72-5.28-2.76-2.3-3.56-2.41S58,153,57.64,154s-7.35-1.26-6.55-5.51,4.13-8.61,4.94-9.07,5.28-.69,6.32-.11a1.84,1.84,0,0,0,2.07-.23,14,14,0,0,1,4.94.46c1,.46,2.64,4.71,3.79,5.17s1.49-2.76,1.72-3.56a10.33,10.33,0,0,0-.8-3.33c-.23-.57,1.84-5.74,3.56-6.55S81.18,127.46,81,127s1.38-.92,1.72-1.15,0-4.36.57-5.28a19.75,19.75,0,0,1,4.94-3.22c1-.46,1.72-3,1.38-3.56s2.64-3,4.25-3.56,2.87.92,2.53,1,2.41-1.26,3.33-1.84,0-2.64-.69-3.22-.23-2.76.57-3,1.49-2.18,1.26-2.53,3.44.34,4.82-.69.34,2.41-.57,3.9a1.61,1.61,0,0,0,1.38,2.53,1.49,1.49,0,0,1,1.49,1.15c.11.34,1.49-.46,2.41,0s1.49-1.26,1.49-2.07-2.18-2.3-2.53-3.33a52.82,52.82,0,0,1-.46-7.46c0-1-1.49-2.87-2-2.53s-1.38-2.87-2.18-3.56a4,4,0,0,1-.92-2.76c0-.46-2.53-3.22-3.22-4.48S99.1,80.38,99,81s-1.84.69-2.64.57-1.38-3-1.38-4-3.33-1.26-3.9-2.18-2.76-.46-3.1-1a3.68,3.68,0,0,0-2.64-.92c-.34.23-.23,8.15-.57,10.22s-2.18,4-2.87,3.9S81.64,89,82,88.88s-1.26,2.3-1.49,3.9-1.84,0-2.07-1.49-1.84-3.44-2.18-3-1.38-.57-1.84-.23S71,86.35,69.7,85.66,67.86,81.3,67.06,81s-.11-.8-.11-1.38S69.36,76.82,70,76A56.9,56.9,0,0,1,74.41,71c1-.8,1.84-2.64,1.61-3s4.48-1.84,5.74-2.18,2.3-3.9,2.53-4.94a4.25,4.25,0,0,0-1.38-3.1c-.57-.23,1.72-.34,2.53.11s3.1-.69,4.13-.23l4.25,2.53-.23,2.53L93,67.06c-3.67,1.49-4.71,4.13-3.44,4s7.12,2.53,8.73,3.67,2.18-1.72,2.64-2.64a7.7,7.7,0,0,0,0-4.25c-.46-.57,1.84-.34,2.53.23s1.38-.57,1.84-.92.69-2.64,1-3.1-1-.92-1.15-1.61-2.64-1.72-3.44-2.18a2.07,2.07,0,0,1-.57-2.53c.34-.34-.23-2.64-.69-3.33s-3.1-1.38-4-1.38S94.62,51,94,50.64a16.77,16.77,0,0,0-4.94-.46c-.8.23-2.41-2.53-3.9-1.61s-3-.92-3.67-1.38-4.13,3.33-4,5.86,1.26,5.05,1.84,5.17-.11,2.41-.69,3.1-2.07-.69-1.49-1.26S75.67,56.72,75,55.69s-2.3-1.49-3.44-2L69.47,56a5.86,5.86,0,0,1,.23,3.1c-.46,1.61-1.84,1.84-1.84,1.15a2,2,0,0,0-1.49-.57,158.81,158.81,0,0,0-35.94,83.48,7.58,7.58,0,0,1,1.84,2.64c.46,1.38,2.87,2.3,3.33,2.64s.57-2.64.23-3.44.57-1.15.57-.69,2.3,3.1,3,4.13,1.49,7,2.3,8.27,7.69,4,10,4.48a12.63,12.63,0,0,1,5.51,3.67c.46.69,3.44,1,4,1.38A31.88,31.88,0,0,1,64,169a4,4,0,0,1,1.15,2c0,.34,3.9,1.84,4.94,2.87a2.41,2.41,0,0,0,2.87.34c.23-.46,1,2.07,1.49,3s.46,3,.11,3.33-.8,4.25-1.49,5.05-2.07,6.55-1.72,7.69a8.5,8.5,0,0,0,3,3.79.92.92,0,0,1-.11,1.61c-.57,0-.34,5.63,1.15,6.43S78.09,206.92,77.86,207.27Z"/><path class="cls-3" d="M96.45,110"/><path class="cls-1" d="M85.55,42.3c1.84-.34,5.05-.92,5.28-1.38a4.82,4.82,0,0,0-.11-2.18h.92c.69,0,2-3.9,2.64-4.82s5.05-2.3,6.09-2.87,3.33-2.76,4.13-3.1,2.18-2.3,2-2.64,3-2.3,4.13-2.76,1.84-1.84,1.38-2S105.07,24,99,27.49A179.71,179.71,0,0,0,79.23,43.22Z"/><path class="cls-1" d="M201.29,240.4c1.93-1.13,5.45-6.24,6.58-7.26s1.93-4.88,2.16-5.67a6.47,6.47,0,0,1,2.5-2.38c.57-.23,2.61-8.62,4.43-10.55s3.86-10.78,3.63-14.07,1.13-9.3,1.59-10.78a16.57,16.57,0,0,1,3.29-4.65,95.21,95.21,0,0,0,6.35-9.19c1.36-2.27,2.72-7.26,2.38-8.51s-3.29-2-3.86-1.36-3.4,1-4.31,1-3-4.88-4.2-5.79-2.38-6.58-3.18-7.6a52.62,52.62,0,0,0-3.4-4.31c-.68-.57-.79-3.52-.91-4.31s1.25.45,1.48,1.7,3.52,5.9,4.54,7.49,3.74,6.69,4.43,8.28,6.69.79,8.74-.11,4.43-2.5,4.54-3.06,3.18-1.93,4.08-2.61,1.59-4.31,2.16-4.88-.45-4.08-1.13-5.11-3.74-1.82-4.43-1.48-1.93-2.27-2.5-3.29-2.84-2.27-3.06-3a2.5,2.5,0,0,1,1-2c.34-.23,4.77,2.84,6,4.43a25,25,0,0,1,3,4.88c.23.57,3.74.68,4.54.11a1.25,1.25,0,0,1,1.76.1,1.24,1.24,0,0,1,.17.24h1.61l3.9-.57a7.56,7.56,0,0,1,2.29,4.12,4.47,4.47,0,0,0,1.83,2.18c.69.11,1.26,2.64,1.49,3.32a55.33,55.33,0,0,1,2.86,6,33.35,33.35,0,0,0,2.75,5.5,12.6,12.6,0,0,1,.8,3.9,2.63,2.63,0,0,0,2.29,1.83c.8-.11,2.64-5.61,3.09-7.68s1.83-3.78,2.18-3.78.69-1.15.69-1.6,2.18-.34,2.41-.92.8-4.24,1.6-4.81a34.48,34.48,0,0,1,4.58-2.75c.92-.34,3.55,1.83,4.12,2.86a8.59,8.59,0,0,1,.8,4c-.23.34,1.26,2.64,2.64,2.64s1.72,1.72,1.83,2.29,1.83,2.41,2.18,3.21a7.56,7.56,0,0,1,0,3.55,18.22,18.22,0,0,0,.11,4.24c.23.8,4.35,5,6,6.3s2.29-2.64,1.49-3.78-3.55-4-4.12-4.81-.69-4.24-.46-5.16,2.41.46,3.21,1.15a6.65,6.65,0,0,1,2.06,2.64c0,.46,5.61-2.64,5.84-6s2.06-7.22,2.18-8.13a2.41,2.41,0,0,0-1-2.18c-.46-.11.8-2.52,2.41-2.52s5.27-4.12,6.19-5.84a13.29,13.29,0,0,1,2.86-3.21,24.53,24.53,0,0,0,1.6-5.73c.23-1.6-.92-4.12-1-5a13.63,13.63,0,0,0-1.83-3.32,7,7,0,0,1-.46-3.32c.11-.34,1.6-.8,1.72-1.26s1.72-2.06,1.6-2.86.92,1,1.72,1.6,1.49,4.7,2.41,5,4.58-4.24,4.12-7.33,1-7,1.95-7.33,2.41-2.75,3.55-4.47a159.48,159.48,0,0,0-39.3-61.87h-.57l-1.38-.23c-2.3-.46-3.56-2.87-3.22-3.45a1.49,1.49,0,0,0,0-1c-1.26-1.15-2.53-2.3-3.9-3.33H285a12,12,0,0,1-4.57-1.41c-.43-.43-2.17.43-2.28,1.41s-3,1.3-3.26,2.07a1.74,1.74,0,0,1-2.07.43c-.22-.43-3,1-4.35,1.09A19.79,19.79,0,0,0,264,43.85a6.74,6.74,0,0,0-2.28,2.28,7.07,7.07,0,0,1-2.5,1.74c-.54.22-.43,2.72.22,3.15s-1.3-.33-2.28-.76-1.85,1.09-2.17,1.63-1.09-.33-1.09-1.09-2.28-1.3-2.5-.76-1.85-.22-2.5-.54-3.48,2.61-4.57,3.7-6.09,1.85-7,1.52-1.85,2.17-1.09,2.39h-4.4A28.13,28.13,0,0,0,224.28,60a1.27,1.27,0,0,1-2.08-.81c0-.69-1.84-1.27-2.31-1.38s-1.61,3.57-2.54,4.27-2.08-2.88-4.38-3.57-5.76-2.77-6.8-3-3-2.31-3.57-3-3.46-1-4.38-1-3.92,1.73-4.73,2.31-2,.46-2.42.81-3.8,3.46-5.07,4.5-3.57,5.42-4.27,6.57a2.77,2.77,0,0,1-2.19,1.27,2.19,2.19,0,0,0-.81,1.61c0,.46-3.8,2.42-4.27,4.15s.46,5.76.46,7.15,1.38,4.27,2.42,4.27.58,2.42.23,3.11.69,1.38.58,2-2.65,1.38-3.46,1.61a5.76,5.76,0,0,0-2.31,2.88c-.12.58-2.65,1-3.57,1.84a10.5,10.5,0,0,1,.69-1.84,3.11,3.11,0,0,0-.58-2.88c-.35-.35-.58-5-1.27-6a25.83,25.83,0,0,0-2.65-3c-.35-.35.23-1.5.58-2.08s-2.19-.81-2.77-.46-1,5-1.27,6.22a3.92,3.92,0,0,0,1.61,3.23c.46.12.23,2.31-.58,2.42s-1.61,3.34-1.15,4.15-.58,2.19-1,2.54,3.23.12,5,.12a4.5,4.5,0,0,1,2.88.81c-.12.12-3.23.58-3.8,1.27s-2.65,2.08-3,2.65.69,1.73,1.5,1.73,1.84,3,2.54,3.57a2.54,2.54,0,0,1,.12,2.65c-.23.46-4.5-.23-6,.12s-3.57,3.69-3.69,5a32.74,32.74,0,0,0,.46,5.88c.12,1,3.46,1.61,4.15,2.08s3.8,0,4.5.35,2.77-3.23,3.23-4.84,3.8-4.61,4.5-5.76,4.27-.92,5.19-1.5.46,2.77.81,4.61,3.92,1.61,3.34-.12.35-2.42.46-1.84,3.46,2,4.15,2.88.46,3-.23,3-.81,2.19,0,2.54,1.84-2.54,2.65-3,1.5-2.19,1.15-2.31.69-1.73,1.15-1.15a20.56,20.56,0,0,0-3.23-4.84c-1.5-1.5-.35-.81,2.19,1.38l1.84,2.54c.35.46.81,1.84,1.15,2.31l.46.69a18.69,18.69,0,0,1,.69,4,2.65,2.65,0,0,0,2.31,1.84,1.5,1.5,0,0,1,1.38.46c-.12.12.58,1.73,1.38,1.73s1.27-2.19.35-2.19-.69-3.23-.81-4.73.58-2.54.92-2.54,0,2.88,0,3.57a11.19,11.19,0,0,0,.81,2.88l.92.69,2,1.5c2.88-.81,6.8-.12,6.57.46s2.08.69,2.19-.23.23.12.23.69-1.84,3.23-2.19,4.38-7,.35-9.91.12-7.15.69-7.38,1.61-4.73-2-6.8-2.77-3.69-3.92-4-4.38.35-1.38.12-2.08-4.84-.69-6.22-.23-8.42,1.27-10,2-4.15,0-5-.12-2.65,2.19-3.57,2.54-2.08,3.69-2.65,7.26l-1.27,2.42-.81,1.61c-2.31,1.73-4.84,7.61-5.65,8.88S146,157.64,146,160.52s2.42,8.88,3.23,10.61,5,5.3,6.46,6.22,6.11,1,7.61,1a4.5,4.5,0,0,0,3.8-3.23l2.19.23h1.58c0,1.25,3.29,2.16,4.08,2.61a6.24,6.24,0,0,0,3.52-.11c.57-.11,1.36,5.56.91,7.26s1.13,7.49,1.59,9.3,2.5,6.58,2.61,8.28-1.13,7.49-1.36,9.53,2.5,7.6,3.18,9.53a35.17,35.17,0,0,1,1.25,7c0,.91,3,6.81,3.63,9.19S199.25,241.54,201.29,240.4Z"/><path class="cls-1" d="M332.78,168.92c.11.46,2.07-1,3.22-1.26s1.84-3.22.92-3.44-2-2.64-2.64-2.87-1.84,1-1.84,2-2.07,1.26-2.53,2.07-.34,1.26,0,1.26A10.53,10.53,0,0,1,332.78,168.92Z"/><path class="cls-1" d="M330.48,185.8c.57-.23,0-3.22-1.26-3.44s-4.48,4-3.9,6.43,1.26,2.3,1.61,1.72,2.3.34,2.87.46.57-.34,0-1.26S329.9,186,330.48,185.8Z"/><path class="cls-1" d="M323.93,182.81c.11-1,.34-4.48.46-5.17s-1.84-2.64-2.87-3-4.13,6.55-6.43,7.81-3.1,5.51-2.53,6.43,5.4,1.49,6.2,2.18,1.72-.11,2.3-.23.34-.46.11-.57,1.61-2.07,2-3.33A31.69,31.69,0,0,0,323.93,182.81Z"/><path class="cls-1" d="M310.84,194.41c-1.72-.69-3.9.34-4,1s6.89,1.84,9.3,2.41,3.79.8,3.33.46Z"/><path class="cls-1" d="M325.43,147.9c.57-.8-.8-4.48-1.49-3.67s-.11,3,0,3.79S324.85,148.71,325.43,147.9Z"/><path class="cls-1" d="M329.56,155.94c.46-.92-.46-2-2.07-2.3s-1.26,4.25-.57,4.82S329.22,156.86,329.56,155.94Z"/><path class="cls-1" d="M337.71,184.65c1.84,1.26,6,.69,6.09-1.72C342,181.66,337.6,181.89,337.71,184.65Z"/><path class="cls-1" d="M336.68,128.19a2.64,2.64,0,0,0-.92,2.41h-.34c-.57,0-.69,2.41,0,2.87s2.18-1.84,3-2.41a3.9,3.9,0,0,1,2.64-.69,7.7,7.7,0,0,0,3.1-.92,2.75,2.75,0,0,0,.92-1c-.34-1.72-.8-3.44-1.15-5.28l-2.07,1.49Z"/><path class="cls-3" d="M294.42,176.84"/><path class="cls-1" d="M305.91,187.52a21.13,21.13,0,0,0-4.82-5.63l-.69-1.26-.8-1.38c-.69-1.49-3-2.64-3.22-3.1s-.92,1.26-1.72.8l2.41,1.72c2.07,1.49,6.2,11.94,7.23,12.63S306.59,189,305.91,187.52Z"/><path class="cls-1" d="M272.95,170.64c-.57,1.15,3,3.67,3.33,3.1a7.58,7.58,0,0,0-1-4C274.56,169,273.64,169.49,272.95,170.64Z"/><path class="cls-1" d="M224.72,226.22c.11,1.26,2.64,2.18,3.33,2s2.76-3.9,3-4.94a32.28,32.28,0,0,0,.57-3.9,5,5,0,0,1,.57-2,7.7,7.7,0,0,0,1-2.76c.23-1.38-1.49-7.92-1.49-9.07s-1.26.57-1.61,1.72-3.56,3.56-4.36,4.48-1.49,4.25-1.15,4.82A7.35,7.35,0,0,1,224,220C223.57,220.7,224.49,225.07,224.72,226.22Z"/><path class="cls-1" d="M107,271.85h2.18C109.43,269.43,106.9,269.78,107,271.85Z"/><path class="cls-1" d="M165.58,24.34a7.35,7.35,0,0,1-3.67-.8A8.84,8.84,0,0,0,157,23.2c-1,.46-.34-2.53,1-2.76s.23-2.3-1.26-2.3-5.28-.57-6.09-.34a14.82,14.82,0,0,1-3.22-.69c-.57-.11-5.17,1.38-7.23,1.26a48.8,48.8,0,0,0-8.5.46c-1.15.23-2,2.53-1.72,3.33s-5.05.8-6.66.8-10.45,1.84-12.75,3.1-4,4.48-3.33,4.48-1.26,1.84-2.53,2.3-4.13.57-4.82,1.26.69,1.15.92,1.61,1-.34,1.84.11,3.33.57,4,.92-2.18.8-3.44.92-1,2.64,0,3.1,3.9.69,4.13.23,3.33.46,4.71.69,2.41,3.56,2.87,4.36.46,3.33.46,4.13,2.41,2.07,2.87,1.61.34,1.15-.69,1-.34,2.76.92,3.22.34,2.18-.34,2.76-.34,2.18-1,2.87,2.64,6.43,2.53,9.42,1.84,5.4,2.53,5.4,3.1.57,3.44,1.26,1.49-.46,2-.92a29.49,29.49,0,0,0,2.18-3.22c.8-1.26,2.41-7.23,2.64-7.92s3-.23,3.67-.57a29.15,29.15,0,0,0,3-2.18c.46-.46,4.48-2.07,5.63-2.87s2.87-4.13,3.79-4.94S148,54.66,147,54a1.15,1.15,0,0,1-.23-1.84c.23-.34,3.56.46,4.59.92s3.22-1,2.41-1.61-.34-.57,0-.34.8-2,.46-2.41,3.22-3.1,2.64-5.63.92-5.17,2-5.17.69-2.87-.57-3.1,0-.46.46-.92a7.23,7.23,0,0,0,.69-3.44c-.23-.46,1.84-1,2.18-1.61A9.76,9.76,0,0,1,165.12,27C165.81,26.64,166.39,24.34,165.58,24.34Z"/><path class="cls-1" d="M186.25,26.64c-1.15-.34-3.44.92-3.1,1.61s-1.84-.92-3.33-.11-2,3.44-1.26,3.79,1.15,2.41,1.15,2.87,2.87.11,3.67-.46.57,2.07-.11,2.87.23,2.18,1,2.3,1.84,2,2.76,2,2.3-3.22,2.53-4.36,3.1-.23,4.36.11,1.72-4.36.34-5.17-3.1-.34-3.67-.92A4.36,4.36,0,0,0,188.43,30C188,29.86,187.4,27,186.25,26.64Z"/><path class="cls-1" d="M197.39,28.94a7.92,7.92,0,0,0,5.28-2.07c.57-.46-6.2-1.84-8.84-2s-4.59.23-4.59.8S195.21,28.59,197.39,28.94Z"/><path class="cls-1" d="M156.28,89.91c-.57-.23-.92,2-.8,2.76s2.18.8,3.1.57a1.84,1.84,0,0,0,1.49-1.61c0-.69-1.26-4-1.72-4S156.86,90.14,156.28,89.91Z"/><path class="cls-1" d="M162.94,63.85c-.46-.8-3.9-.69-4.82-.69a12.18,12.18,0,0,1-4-1.49c-.57-.57-.8,2.18-1.61,2.53s.46.8.69.57,0,1.38-.46,2,2.3.92,2.64,1.84a2.3,2.3,0,0,0,2.41,1.26c1-.11,3.1-1.26,3.9-1.38S163.4,64.76,162.94,63.85Z"/><path class="cls-1" d="M237.24,43.64c1.15-1.15,6.2-2.87,6.77-4.13a1.61,1.61,0,0,0-.59-2.19l-.21-.1a1.72,1.72,0,0,0-1.26.8c-.11.23-5.86,1.49-7.58,2.41a19.06,19.06,0,0,0-4.48,2.87c-.69.69-2,6.43-2.3,7s1.84,2.87,2.87,3.56a5.28,5.28,0,0,0,2.87.23c.46-.11-.46-4-1-5.4S236.09,44.9,237.24,43.64Z"/><path class="cls-1" d="M231.15,28.82c1.84,1.84,2.87-.8,4.94-.57C236.09,24.34,230.92,25.84,231.15,28.82Z"/><path class="cls-1" d="M267.78,29.63c0,.69,5.17,1.26,6.77.92S274.21,27.9,272,28,267.78,28.94,267.78,29.63Z"/><path class="cls-1" d="M76.7,68.67c-.57.46,0,3.1.92,3.1s2.76-3.9,4-3.1,2.18,1,2,.69-3.9-2-4.36-2.3S77.28,68.21,76.7,68.67Z"/><path class="cls-1" d="M90.14,156.4c0,.46,2.3.34,2.64-.34s.11-1.26-.46-1.26A3.67,3.67,0,0,0,90.14,156.4Z"/><path class="cls-1" d="M79.92,152.61c1-.23.57,1.49.8,2.18s2.87,1.15,3.44,1.61,1.84-.8,2.87-.69S86.69,152,85,152.15s-3.1-1.61-3.56-1.84a19.06,19.06,0,0,1-3-1.84c-.57-.46-5.05-.8-6.55-.8a4.71,4.71,0,0,0-3.44,2.07c-.23.46,2.41.92,3.1.46s4.25.46,5.05,1.26A4.25,4.25,0,0,0,79.92,152.61Z"/><path class="cls-1" d="M75.1,156.4c0,.46,2.3.11,2.87.11s.57-.46,0-.8S75.1,155.94,75.1,156.4Z"/><path class="cls-1" d="M76.7,144.46c-.57-.23-1,.69-1,1.15a.8.8,0,0,0,.69.8C76.82,146.41,77.39,144.69,76.7,144.46Z"/><path class="cls-1" d="M81.64,144.8a2,2,0,0,0-1.49-.8c-.34,0-.46.69-.46,1.72S81.76,145.26,81.64,144.8Z"/><path class="cls-1" d="M85.09,150.2c.92-.46,1-1.49.46-1.49s-1.61-1.61-2.18-1.84-1,1-1,1.49a.69.69,0,0,0,.56.79H83C83.48,149,84.17,150.66,85.09,150.2Z"/><path class="cls-1" d="M77.51,207.55c-.23.46,2.66,3.35,3.7,4.39a30.06,30.06,0,0,1,3.93,7.4,13.29,13.29,0,0,1,0,4.74,8.09,8.09,0,0,0,.58,2.43c.12.58-.92,5.2-.58,7.17s-2.2,7.74-2.08,10.75,1.39,6.7,1.85,6.47.69,2.66-.12,3-2,2.66-1.39,2.77,0,2.43.12,3.35.92,7,1,8.55,2.31,5.2,2.77,6.47.92,3.58,1,3.93l.35.81a11,11,0,0,1,2.31,1c.46.35,3.93.12,5.08-.12s.12-1.27-.35-1.73-.92-3.24-1.5-3.47-.81-3.7-.35-4.51,2.54-2,2.77-2.66.23-3.58-.23-4,.12-4-.23-5.89,3.12-3.47,3.35-4.85,4-3,4.85-3.7,1.62-4.85,1.16-5.66,1.39-1.62,2.2-1.62a11.56,11.56,0,0,0,2.08-.58c.23,0,1.27-1.85,1.73-2.2s1.62-4.74,2.54-5.43a7.86,7.86,0,0,0,1.73-4,10.75,10.75,0,0,1,2-3.7c.46-.69,4-2.31,4.74-2.54s1.62-6,1.85-8.09a46.6,46.6,0,0,1,1.39-5.55c0-.69,1.16-1.27,1.39-1.5s1-2.89,1.62-3.47,2.54-3.12,2.54-3.7a18.37,18.37,0,0,1,.69-3.24V195c-.58-1.73-2.54-3.93-3-3.35s-2.66-1.5-3.81-2a18.84,18.84,0,0,0-4.62-.69c-.69,0-3.12-2-4.28-2.31s-3.93-.81-4.39-1.16-1.16-4.51-3.47-5.89-6.24-4.62-6.7-5.78-4.74-3.58-6.13-4.39-3.35-.92-3.58-.58-2-2.31-2.77-3-3.47-1.27-3.58-.69-1.85.23-2.2-.23-1.73.23-2.43.46-2.77,3.47-3.81,4.28-2.2-.69-2.89-1a6.93,6.93,0,0,0-3.81,1c-.69.46-2.2-3.47-1.85-5.32s-1.62-5.43-3.24-5.55-2-3.93-1.73-5.32S61,151.15,60.17,151s-2.66,1.85-3,2.89-7.4-1.27-6.59-5.55,4.16-8.67,5-9.13,5.32-.69,6.36-.12A1.85,1.85,0,0,0,64,138.9a14.1,14.1,0,0,1,5,.46c1,.46,2.66,4.74,3.81,5.2s1.5-2.77,1.73-3.58a10.4,10.4,0,0,0-.81-3.35c-.23-.58,1.85-5.78,3.58-6.59s3.58-3.81,3.35-4.28,1.39-.92,1.73-1.16,0-4.39.58-5.32a19.88,19.88,0,0,1,5-3.24c1-.46,1.73-3,1.39-3.58s2.66-3,4.28-3.58,2.89.92,2.54,1,2.43-1.27,3.35-1.85,0-2.66-.69-3.24-.23-2.77.58-3,1.5-2.2,1.27-2.54,3.47.35,4.85-.69.35,2.43-.58,3.93a1.62,1.62,0,0,0,1.39,2.54,1.5,1.5,0,0,1,1.5,1.16c.12.35,1.5-.46,2.43,0s1.5-1.27,1.5-2.08-2.2-2.31-2.54-3.35a53.16,53.16,0,0,1-.46-7.51c0-1-1.5-2.89-2-2.54s-1.39-2.89-2.2-3.58a4,4,0,0,1-.92-2.77c0-.46-2.54-3.24-3.24-4.51s-1.5-1-1.62-.46-1.85.69-2.66.58-1.39-3-1.39-4-3.35-1.27-3.93-2.2-2.77-.46-3.12-1A3.7,3.7,0,0,0,85,72.79c-.35.23-.23,8.21-.58,10.29s-2.2,4-2.89,3.93-.23,1.5.12,1.39-1.27,2.31-1.5,3.93-1.85,0-2.08-1.5-1.85-3.47-2.2-3-1.39-.58-1.85-.23-3.47-1.73-4.74-2.43-1.85-4.39-2.66-4.74-.12-.81-.12-1.39,2.43-2.77,3.12-3.58A57.27,57.27,0,0,1,74,70.37c1-.81,1.85-2.66,1.62-3s4.51-1.85,5.78-2.2,2.31-3.93,2.54-5a4.28,4.28,0,0,0-1.39-3.12c-.58-.23,1.73-.35,2.54.12s3.12-.69,4.16-.23l4.28,2.54L93.34,62l-.58,4.39c-3.7,1.5-4.74,4.16-3.47,4s7.17,2.54,8.78,3.7,2.2-1.73,2.66-2.66a7.75,7.75,0,0,0,0-4.28c-.46-.58,1.85-.35,2.54.23s1.39-.58,1.85-.92.69-2.66,1-3.12-1-.92-1.16-1.62-2.66-1.73-3.47-2.2a2.08,2.08,0,0,1-.58-2.54c.35-.35-.23-2.66-.69-3.35s-3.12-1.39-4-1.39-1.85-2.08-2.43-2.43a16.87,16.87,0,0,0-5-.46c-.81.23-2.43-2.54-3.93-1.62s-3-.92-3.7-1.39-4.16,3.35-4,5.89,1.27,5.08,1.85,5.2-.12,2.43-.69,3.12-2.08-.69-1.5-1.27S75.31,56,74.62,55s-2.31-1.5-3.47-2l-2.08,2.31a5.9,5.9,0,0,1,.23,3.12c-.46,1.62-1.85,1.85-1.85,1.16a2,2,0,0,0-1.5-.58L63.87,61.7l-2.08,2.66-2.08,2.89-1.85,2.54L55.2,73.72l-2.43,3.81c-.69,1-1.27,2.2-2,3.35a12.94,12.94,0,0,0-1.27,2.31l-2,3.58-1,2.08c-1.39,2.77-2.77,5.66-4,8.67v.23l-1.73,4.39-.69,1.62-1.62,4.51-.23.69a159,159,0,0,0-4.51,15.6c-.12.35-.12.69-.23,1a159.36,159.36,0,0,0-2.89,17h0a7.63,7.63,0,0,1,1.85,2.66c.46,1.39,2.89,2.31,3.35,2.66s.58-2.66.23-3.47.58-1.16.58-.69,2.31,3.12,3,4.16,1.5,7,2.31,8.32,7.74,4,10.05,4.51a12.71,12.71,0,0,1,5.55,3.7c.46.69,3.47,1,4,1.39a32.08,32.08,0,0,1,2.77,2.77,4,4,0,0,1,1.16,2c0,.35,3.93,1.85,5,2.89a2.43,2.43,0,0,0,2.89.35c.23-.46,1,2.08,1.5,3s.46,3,.12,3.35-.81,4.28-1.5,5.08-2.08,6.59-1.73,7.74a8.55,8.55,0,0,0,3,3.81.92.92,0,0,1-.12,1.62c-.58,0-.35,5.66,1.16,6.47S77.74,207.2,77.51,207.55Z"/><line class="cls-4" x1="96.45" y1="110.01" x2="96.45" y2="110.01"/><path class="cls-1" d="M85.33,42.37c1.87-.35,5.16-.94,5.39-1.41a4.92,4.92,0,0,0-.12-2.23h.94c.7,0,2-4,2.7-4.92s5.16-2.34,6.21-2.93,3.4-2.81,4.22-3.16,2.23-2.34,2-2.7,3-2.34,4.22-2.81,1.87-1.87,1.41-2-7,3.52-13.24,7h-.12L93.65,31l-3.4,2.7L88.5,35.11l-4,3.4-.82.7-4.34,3.87Z"/><path class="cls-1" d="M186.37,120.73c-.69,0-.8,2.18,0,2.53s1.26-1.26,2-2.18v-8.84h-.11c-.92-.92-.8-.92.11-.23V57.23l-2.07,1.84c-1.26,1-3.56,5.4-4.25,6.55a2.76,2.76,0,0,1-2.18,1.26,2.18,2.18,0,0,0-.8,1.61c0,.46-3.79,2.41-4.25,4.13s.46,5.74.46,7.12S176.61,84,177.64,84s.57,2.41.23,3.1.69,1.38.57,2-2.64,1.38-3.44,1.61a5.74,5.74,0,0,0-2.3,2.87c-.11.57-2.64,1-3.56,1.84s.57-1.38.69-1.84a3.1,3.1,0,0,0-.57-2.87c-.34-.34-.57-4.94-1.26-6a25.73,25.73,0,0,0-2.64-3c-.46-.34.23-1.49.57-2.07s-2.18-.8-2.76-.46-1,4.94-1.26,6.2a3.9,3.9,0,0,0,1.61,3.22c.46.11.23,2.3-.57,2.41s-1.61,3.33-1.15,4.13-.57,2.18-1,2.53,3.22.11,4.94.11a4.48,4.48,0,0,1,2.87.8c-.11.11-3.22.57-3.79,1.26s-2.64,2.07-3,2.64.69,1.72,1.49,1.72,1.84,3,2.53,3.56a2.53,2.53,0,0,1,.11,2.64c-.23.46-4.48-.23-6,.11s-3.56,3.67-3.67,4.94a32.15,32.15,0,0,0,.46,5.86c.11.92,3.44,1.61,4.13,2.07s3.79,0,4.48.34,2.76-3.22,3.22-4.82,3.79-4.59,4.48-5.74,4.25-.92,5.17-1.49.46,2.76.8,4.59,3.9,1.61,3.33-.11.34-2.41.46-1.84,3.44,2,4.13,2.87S187.06,120.73,186.37,120.73Z"/><path class="cls-1" d="M188.55,131.06a9,9,0,0,0-1.72-.8c-2.07-.8-3.67-3.9-4-4.36s.34-1.38.11-2.07-4.82-.69-6.2-.23-8.38,1.26-10,2-4.13,0-4.94-.11-2.64,2.18-3.56,2.53-2.07,3.67-2.64,7.23l-1.26,2.41-.8,1.61c-2.3,1.72-4.82,7.58-5.63,8.84s-1.38,9.65-1.38,12.52,2.41,8.84,3.22,10.56,4.94,5.28,6.43,6.2,6.09,1,7.58,1a4.48,4.48,0,0,0,3.79-3.22l2.18.23h1c0,1.26,3.33,2.18,4.13,2.64a6.32,6.32,0,0,0,3.56-.11c.57-.11,1.38,5.63.92,7.35s1.15,7.58,1.61,9.42,2.53,6.66,2.64,8.38-1.15,7.58-1.38,9.65,2.53,7.69,3.22,9.65a35.59,35.59,0,0,1,1.26,7.12,21.35,21.35,0,0,0,1.61,4.13V130.83h0Z"/><path class="cls-1" d="M107,271.85h2.18C109.43,269.43,106.9,269.78,107,271.85Z"/><path class="cls-1" d="M151.11,53.17c1.15.46,3.22-1,2.41-1.61s-.34-.57,0-.34.8-2,.46-2.41,3.22-3.1,2.64-5.63,1-5.17,2-5.17.69-2.87-.57-3.1,0-.46.46-.92a7.23,7.23,0,0,0,.69-3.44c-.23-.46,1.84-1,2.18-1.61a9,9,0,0,1,3.56-1.84c.92-.11,1.26-2.41.46-2.3a7.35,7.35,0,0,1-3.67-.8c-.46-.46-3.9-.8-4.94-.46s-.34-2.53,1-2.76.23-2.3-1.26-2.3-5.28-.57-6.09-.34a14.82,14.82,0,0,1-3.22-.69c-.57-.11-5.17,1.38-7.23,1.26a48.45,48.45,0,0,0-8.5.46c-1.15.23-2,2.53-1.72,3.33s-5.05.8-6.66.8-10.45,1.84-12.75,3.1-4,4.48-3.33,4.48-1.26,1.84-2.53,2.3-4.13.57-4.82,1.26.69,1.15.92,1.61,1-.46,1.84,0,3.33.57,4,.92-2.18.8-3.44.92-1,2.64,0,3.1,3.9.69,4.13.23,3.33.46,4.71.69,2.41,3.56,2.87,4.36.46,3.33.46,4.13S117.58,52.48,118,52s.34,1.15-.69,1-.34,2.76.92,3.22.34,2.18-.34,2.76-.34,2.18-1,2.87,2.64,6.43,2.53,9.42,1.84,5.4,2.53,5.4,3.1.57,3.44,1.26,1.49-.46,2-.92a29.49,29.49,0,0,0,2.18-3.22c.8-1.26,2.41-7.23,2.64-7.92s3-.23,3.67-.57a29.15,29.15,0,0,0,3-2.18c.46-.46,4.48-2.07,5.63-2.87s2.87-4.13,3.79-4.94-.46-.46-1.49-1.15a1.15,1.15,0,0,1-.23-1.84C146.75,51.9,150.08,52.71,151.11,53.17Z"/><path class="cls-1" d="M186,26.64c-1.15-.34-3.44.92-3.1,1.61s-1.84-.92-3.33-.11-2,3.44-1.26,3.79,1.15,2.41,1.15,2.87,2.87.11,3.67-.46.57,2.07-.11,2.87.23,2.18,1,2.3,1.84,2,2.76,2a2.76,2.76,0,0,0,1.49-1.72V29.86h0C187.75,29.86,187.17,27,186,26.64Z"/><path class="cls-1" d="M158.69,93.24a1.84,1.84,0,0,0,1.49-1.61c0-.69-1.26-4-1.72-4S157.09,90,156.4,89.8s-.92,2-.8,2.76S157.66,93.47,158.69,93.24Z"/><path class="cls-1" d="M155.48,68.55a2.3,2.3,0,0,0,2.41,1.26c1-.11,3.1-1.26,3.9-1.38s1.49-3.79,1-4.59-3.9-.69-4.82-.69a12.18,12.18,0,0,1-4-1.49c-.57-.57-.8,2.18-1.61,2.53s.34.8.69.57,0,1.38-.46,2S155.25,67.86,155.48,68.55Z"/><path class="cls-1" d="M76.7,68.67c-.57.46,0,3.1.92,3.1s2.76-3.9,4-3.1,2.18,1,2,.69-3.9-2-4.36-2.3S77.28,68.21,76.7,68.67Z"/><path class="cls-1" d="M90.14,156.4c0,.46,2.3.34,2.64-.34s.11-1.26-.46-1.26A3.67,3.67,0,0,0,90.14,156.4Z"/><path class="cls-1" d="M79.92,152.61c1-.23.57,1.49.8,2.18s2.87,1.15,3.44,1.61,1.84-.8,2.87-.69S86.69,152,85,152.15s-3.1-1.61-3.56-1.84a19.06,19.06,0,0,1-3-1.84c-.57-.46-5.05-.8-6.55-.8a4.71,4.71,0,0,0-3.44,2.07c-.23.46,2.41.92,3.1.46s4.25.46,5.05,1.26A4.25,4.25,0,0,0,79.92,152.61Z"/><path class="cls-1" d="M75.1,156.4c0,.46,2.3.11,2.87.11s.57-.46,0-.8S75.1,155.94,75.1,156.4Z"/><path class="cls-1" d="M76.7,144.46c-.57-.23-1,.69-1,1.15a.8.8,0,0,0,.69.8C76.82,146.41,77.39,144.69,76.7,144.46Z"/><path class="cls-1" d="M81.64,144.8a2,2,0,0,0-1.49-.8c-.34,0-.46.69-.46,1.72S81.76,145.26,81.64,144.8Z"/><path class="cls-1" d="M85.09,150.2c.92-.46,1-1.49.46-1.49s-1.61-1.61-2.18-1.84-1,1-1,1.49a.69.69,0,0,0,.56.79H83C83.48,149,84.17,150.66,85.09,150.2Z"/><path class="cls-5" d="M90.83,39.39c-.11-.11-.8.34-.46.57A.37.37,0,0,0,90.83,39.39Z"/><path class="cls-5" d="M108.51,92.09c-.11-.11-.8.34-.57.57S108.86,92.44,108.51,92.09Z"/><path class="cls-6" d="M108.07,46.78H19.41A19.41,19.41,0,0,0,0,66.18V278.85a19.41,19.41,0,0,0,19.41,19.41h88.65a19.41,19.41,0,0,0,19.41-19.41V66.29a19.28,19.28,0,0,0-19-19.51Z"/><path class="cls-7" d="M46.62,61.71H80.15a1.72,1.72,0,0,1,1.72,1.72,1.61,1.61,0,0,1-1.48,1.72H46.62a1.72,1.72,0,1,1,0-3.44Z"/><path class="cls-7" d="M63.38,283.75a11.25,11.25,0,1,1,11.25-11.25A11.37,11.37,0,0,1,63.38,283.75Z"/><rect class="cls-7" x="8.04" y="84.67" width="111.39" height="164.21"/><path class="cls-3" d="M63.38,264.68a7.92,7.92,0,0,0-7.81,7.81,7.81,7.81,0,1,0,7.81-7.81Z"/><rect class="cls-8" x="14.93" y="122.57" width="97.61" height="50.53"/><rect class="cls-9" x="41.34" y="100.75" width="71.19" height="6.89"/><path class="cls-9" d="M32.72,104.5a9.19,9.19,0,1,1-9.19-9.19A9.19,9.19,0,0,1,32.72,104.5Z"/><rect class="cls-9" x="14.93" y="205.24" width="97.61" height="3.44"/><rect class="cls-9" x="14.93" y="215.58" width="97.61" height="3.44"/><rect class="cls-9" x="14.93" y="224.77" width="97.61" height="3.44"/><rect class="cls-9" x="13.78" y="235.1" width="71.19" height="3.44"/><rect class="cls-9" x="13.78" y="186.87" width="65.45" height="6.89"/><g id="Isologo"><path class="cls-7" d="M22.95,142.27v10.05a1.66,1.66,0,0,0,.25,1.27,1.79,1.79,0,0,0,1.44.51H48v.34h3V152H48v.34H25.1a.41.41,0,0,1-.51-.42v-9.63Z"/><path class="cls-7" d="M29.07,157.39c-.08-.08-.17-.08-.17-.17l-1-1.52H43.56c.68,0,.84-.34.84-.93v-12.5s.08-.76-.51-.76H20.16v.34H17.54v-2.24h2.62v.34H44.4a2,2,0,0,1,1.86,2.28V154.3c0,.84.17,2-.42,2.62l-.17.17a1.88,1.88,0,0,1-1.35.25h-15a.54.54,0,0,1-.25,0Z"/><path class="cls-7" d="M39.29,136.74H24.59a2.21,2.21,0,0,0-1.65,1.18,1.76,1.76,0,0,0-.08.93v.68h1.6V139c0-.51.59-.42.93-.42H38Z"/><polygon class="cls-7" points="31.39 157.81 35.36 157.81 35.36 159.96 36.93 159.96 36.93 161.74 29.87 161.74 29.87 159.96 31.39 159.96 31.39 157.81"/><rect class="cls-7" x="16.66" y="139.78" width="0.84" height="1.77"/><rect class="cls-7" x="16.66" y="141.42" width="0.84" height="0.08"/><rect class="cls-7" x="16.66" y="141.26" width="0.84" height="0.08"/><rect class="cls-7" x="16.66" y="141" width="0.84" height="0.08"/><rect class="cls-7" x="16.66" y="140.83" width="0.84" height="0.08"/><rect class="cls-7" x="16.66" y="140.58" width="0.84" height="0.08"/><rect class="cls-7" x="16.66" y="140.41" width="0.84" height="0.08"/><rect class="cls-7" x="16.66" y="140.12" width="0.84" height="0.08"/><rect class="cls-7" x="16.66" y="139.95" width="0.84" height="0.08"/><text class="cls-10" transform="translate(53.61 154.47)">NET</text><text class="cls-10" transform="translate(75.65 154.47)">-</text><text class="cls-10" transform="translate(81.14 154.47)">CODE</text><text class="cls-11" transform="translate(29.1 149.09)">{</text><text class="cls-11" transform="translate(36.57 149.09)">}</text><rect class="cls-7" x="50.88" y="152.33" width="0.84" height="1.77"/><rect class="cls-7" x="50.88" y="153.98" width="0.84" height="0.08"/><rect class="cls-7" x="50.88" y="153.81" width="0.84" height="0.08"/><rect class="cls-7" x="50.88" y="153.56" width="0.84" height="0.08"/><rect class="cls-7" x="50.88" y="153.39" width="0.84" height="0.08"/><rect class="cls-7" x="50.88" y="153.14" width="0.84" height="0.08"/><rect class="cls-7" x="50.88" y="152.97" width="0.84" height="0.08"/><rect class="cls-7" x="50.88" y="152.67" width="0.84" height="0.08"/><rect class="cls-7" x="50.88" y="152.5" width="0.84" height="0.08"/></g></g></g></g></svg>