<?xml version="1.0" encoding="utf-8"?>
<!-- Generator: Adobe Illustrator 21.1.0, SVG Export Plug-In . SVG Version: 6.00 Build 0)  -->
<svg version="1.1" id="Capa_1" xmlns="http://www.w3.org/2000/svg" xmlns:xlink="http://www.w3.org/1999/xlink" x="0px" y="0px"
	 viewBox="0 0 227.5 60" style="enable-background:new 0 0 227.5 60;" xml:space="preserve">
<style type="text/css">
	.st0{fill:#FFFFFF;}
	.st1{font-family:'Heineken';}
	.st2{font-size:30px;}
	.st3{font-family:'ArialMT';}
	.st4{font-size:19.4816px;}
</style>
<g>
	<title>Net-Code-blanco</title>
	<path class="st0" d="M15.7,13.9v23.8c-0.2,1,0,2.2,0.6,3c0.8,0.8,2.2,1.4,3.4,1.2H75v0.8h7v-5.8h-7v0.8H20.8c0,0-1.2,0.2-1.2-1
		V13.9H15.7z"/>
	<path class="st0" d="M30.2,49.7c-0.2-0.2-0.4-0.2-0.4-0.4l-2.4-3.6h37.1c1.6,0,2-0.8,2-2.2V13.9c0,0,0.2-1.8-1.2-1.8H9.1v0.8H2.9
		V7.6h6.2v0.8h57.4c0,0,4.4,0.2,4.4,5.4c0,6.4,0,12.7,0,19.1v9.5c0,2,0.4,4.8-1,6.2c-0.2,0.2-0.2,0.2-0.4,0.4c-1,0.6-2,0.8-3.2,0.6
		H30.8C30.6,49.7,30.4,49.7,30.2,49.7L30.2,49.7z"/>
	<path class="st0" d="M54.4,0.8H19.6C18,1,16.3,2.2,15.7,3.6c-0.2,0.8-0.4,1.4-0.2,2.2v1.6h3.8V6.2c0-1.2,1.4-1,2.2-1h29.8L54.4,0.8
		z"/>
	<polygon class="st0" points="35.7,50.7 45.1,50.7 45.1,55.8 48.8,55.8 48.8,60 32.1,60 32.1,55.8 35.7,55.8 	"/>
	<rect x="0.8" y="8" class="st0" width="2" height="4.2"/>
	<rect x="0.8" y="11.9" class="st0" width="2" height="0.2"/>
	<rect x="0.8" y="11.5" class="st0" width="2" height="0.2"/>
	<rect x="0.8" y="10.9" class="st0" width="2" height="0.2"/>
	<rect x="0.8" y="10.5" class="st0" width="2" height="0.2"/>
	<rect x="0.8" y="9.9" class="st0" width="2" height="0.2"/>
	<rect x="0.8" y="9.5" class="st0" width="2" height="0.2"/>
	<rect x="0.8" y="8.8" class="st0" width="2" height="0.2"/>
	<rect x="0.8" y="8.4" class="st0" width="2" height="0.2"/>
	<text transform="matrix(1 0 0 1 88.3016 42.7829)" class="st0 st1 st2">NET</text>
	<text transform="matrix(1 0 0 1 140.5016 42.7829)" class="st0 st1 st2">-</text>
	<text transform="matrix(1 0 0 1 153.5016 42.7829)" class="st0 st1 st2">CODE</text>
	<text transform="matrix(1 0 0 1 30.2627 30.0488)" class="st0 st3 st4">{</text>
	<text transform="matrix(1 0 0 1 47.9492 30.0488)" class="st0 st3 st4">}</text>
	<rect x="81.8" y="37.7" class="st0" width="2" height="4.2"/>
	<rect x="81.8" y="41.6" class="st0" width="2" height="0.2"/>
	<rect x="81.8" y="41.2" class="st0" width="2" height="0.2"/>
	<rect x="81.8" y="40.6" class="st0" width="2" height="0.2"/>
	<rect x="81.8" y="40.2" class="st0" width="2" height="0.2"/>
	<rect x="81.8" y="39.6" class="st0" width="2" height="0.2"/>
	<rect x="81.8" y="39.2" class="st0" width="2" height="0.2"/>
	<rect x="81.8" y="38.5" class="st0" width="2" height="0.2"/>
	<rect x="81.8" y="38.1" class="st0" width="2" height="0.2"/>
</g>
</svg>
